<svg id="_x31__x2C_5" enable-background="new 0 0 24 24" height="512" viewBox="0 0 24 24" width="512" xmlns="http://www.w3.org/2000/svg"><path d="m9 10c-2.757 0-5-2.243-5-5s2.243-5 5-5 5 2.243 5 5-2.243 5-5 5zm0-8.5c-1.93 0-3.5 1.57-3.5 3.5s1.57 3.5 3.5 3.5 3.5-1.57 3.5-3.5-1.57-3.5-3.5-3.5z"/><path d="m8.85 21.5h-8.35c-.414 0-.75-.336-.75-.75v-4c0-2.619 2.131-4.75 4.75-4.75h9c1.452 0 2.803.646 3.705 1.771.259.323.208.796-.116 1.055-.322.261-.795.207-1.054-.115-.617-.77-1.541-1.21-2.535-1.21h-9c-1.792 0-3.25 1.458-3.25 3.25v3.249h7.6c.414 0 .75.336.75.75s-.336.75-.75.75z"/><path d="m16.75 24c-.056 0-.112-.006-.169-.02-.404-.093-.655-.495-.563-.899l1.5-6.5c.094-.403.497-.658.899-.562.404.093.655.495.563.899l-1.5 6.5c-.079.348-.388.582-.73.582z"/><path d="m20.75 23c-.205 0-.409-.084-.558-.248-.277-.309-.252-.782.056-1.06l1.881-1.692-1.881-1.692c-.308-.277-.333-.751-.056-1.06.278-.308.752-.332 1.06-.056l2.5 2.25c.158.143.248.345.248.558s-.09.415-.248.558l-2.5 2.25c-.144.129-.323.192-.502.192z"/><path d="m14.25 23c-.179 0-.358-.063-.502-.192l-2.5-2.25c-.158-.143-.248-.345-.248-.558s.09-.415.248-.558l2.5-2.25c.308-.276.782-.251 1.06.056.277.309.252.782-.056 1.06l-1.881 1.692 1.881 1.692c.308.277.333.751.056 1.06-.149.164-.353.248-.558.248z"/></svg>